<svg width="199" height="23" viewBox="0 0 199 23" fill="none" xmlns="http://www.w3.org/2000/svg">
<path d="M85.4984 22.0204V18.6035H88.0265V8.73224H84.7206V5.50511H91.5269V6.26443C91.9158 6.0746 92.8882 5.31528 94.8328 5.31528C96.7775 5.31528 98.3332 6.26443 98.7222 6.6441C98.9166 6.26443 100.667 5.31528 102.611 5.31528C105.334 5.31528 108.057 6.6441 108.057 9.49157V18.6035H110.001V22.0204H102.806V18.6035H104.751V10.4407C104.751 9.11191 103.778 8.54241 102.417 8.54241C100.472 8.54241 99.889 9.49157 99.889 10.4407V18.7933H101.834V22.2103H94.4439V18.6035H96.3886V10.4407C96.3886 9.11191 95.6107 8.54241 94.055 8.54241C92.4992 8.54241 91.5269 9.11191 91.5269 10.4407V18.7933H93.4716V22.2103L85.4984 22.0204ZM2.07227 22.0204V18.6035H4.60034V8.73224H1.09994V5.50511H7.90627V6.26443C8.2952 6.0746 9.26753 5.31528 11.2122 5.31528C13.1569 5.31528 14.7126 6.26443 15.1015 6.6441C15.296 6.26443 17.0462 5.31528 18.9909 5.31528C21.7134 5.31528 24.2415 6.6441 24.2415 9.49157V18.6035H26.5751V22.0204H19.3798V18.6035H21.3245V10.4407C21.3245 9.11191 20.3521 8.54241 18.9909 8.54241C17.0462 8.54241 16.2683 9.49157 16.2683 10.4407V18.7933H18.213V22.2103H11.0177V18.6035H12.9624V10.4407C12.9624 9.11191 12.1845 8.54241 10.6288 8.54241C9.07307 8.54241 8.10073 9.11191 8.10073 10.4407V18.7933H10.0454V22.2103L2.07227 22.0204ZM72.0802 22.0204V18.6035H74.6083V8.73224H71.8858V5.50511H78.1087V18.7933H80.8312V22.0204H72.0802ZM113.696 13.8577C113.891 9.49157 117.002 5.50511 122.058 5.50511C126.531 5.50511 130.226 8.92207 130.226 13.6679V14.2374H117.196V14.617C117.196 17.4645 119.53 19.3628 122.058 19.3628C124.197 19.3628 125.364 18.6035 126.531 17.4645C127.114 16.5153 127.503 16.1357 128.476 16.1357C129.059 16.1357 129.642 16.7052 129.642 17.6543C129.642 19.5526 126.725 22.4001 122.058 22.4001C116.419 22.4001 113.696 18.2238 113.696 14.0475V13.8577ZM117.78 11.2001H126.725C126.142 9.30174 124.392 8.35258 122.253 8.35258C120.308 8.35258 118.363 9.49157 117.974 11.2001H117.78ZM184.093 13.6679C183.945 14.4102 183.966 15.1753 184.157 15.9085C184.347 16.6416 184.701 17.3246 185.194 17.9083C185.686 18.4921 186.305 18.9622 187.006 19.285C187.706 19.6077 188.472 19.7751 189.246 19.7751C190.021 19.7751 190.786 19.6077 191.487 19.285C192.188 18.9622 192.807 18.4921 193.299 17.9083C193.792 17.3246 194.146 16.6416 194.336 15.9085C194.526 15.1753 194.548 14.4102 194.4 13.6679C194.4 12.3085 193.847 11.0048 192.862 10.0436C191.877 9.08241 190.542 8.54241 189.149 8.54241C187.757 8.54241 186.421 9.08241 185.436 10.0436C184.452 11.0048 183.899 12.3085 183.899 13.6679H184.093ZM180.398 13.6679C180.398 11.4023 181.32 9.22947 182.961 7.62746C184.602 6.02545 186.828 5.12545 189.149 5.12545C191.47 5.12545 193.696 6.02545 195.337 7.62746C196.978 9.22947 197.9 11.4023 197.9 13.6679C197.9 15.9334 196.978 18.1062 195.337 19.7083C193.696 21.3103 191.47 22.2103 189.149 22.2103C186.828 22.2103 184.602 21.3103 182.961 19.7083C181.32 18.1062 180.398 15.9334 180.398 13.6679ZM74.4138 2.27798C74.4138 0.949157 75.3862 0 76.3585 0C77.5253 0 78.4976 0.949157 78.4976 2.08815C78.4976 3.22713 77.5253 4.17629 76.553 4.17629C76.2817 4.2029 76.0078 4.17355 75.7489 4.09015C75.4901 4.00674 75.2521 3.87113 75.0504 3.69213C74.8486 3.51313 74.6878 3.29473 74.5781 3.05111C74.4684 2.80748 74.4125 2.54408 74.4138 2.27798ZM30.2699 17.6543C30.2699 12.7187 38.0486 11.9594 42.5213 11.2001V10.2509C42.5213 8.35258 41.1601 7.78309 39.4099 7.78309C37.0763 7.78309 36.2984 8.35258 35.9095 9.11191C35.1316 10.0611 35.3261 11.0102 33.5759 11.0102C32.6035 11.0102 32.0201 10.2509 32.0201 9.30174C32.0201 5.69494 36.8818 5.12545 38.632 5.12545C43.6881 5.12545 46.0217 7.02376 46.0217 10.8204V18.4136H48.3553V21.8306H42.5213V19.3628C41.5932 20.2368 40.4963 20.9219 39.2944 21.3782C38.0925 21.8344 36.8097 22.0528 35.5205 22.0204C32.4091 22.0204 30.2699 20.6916 30.2699 17.6543ZM33.9648 17.6543C33.9648 18.6035 34.5482 18.9831 35.9095 18.9831C39.4099 18.9831 42.7158 17.0848 42.7158 14.617V13.8577H42.3269C39.7988 14.2374 33.9648 15.1865 33.9648 17.6543ZM133.337 21.8306V18.6035H137.227V3.6068H132.754V0.379663H140.532V12.9085L145.005 9.11191H143.061V5.50511H151.617V8.73224H148.895L145.394 12.1492L149.283 18.6035H152.395V22.0204H143.644V18.6035H145.394L143.061 14.4272L140.338 16.895V18.7933H142.672V22.0204L133.337 21.8306ZM157.062 21.8306V18.6035H160.757V3.6068H156.284V0.379663H164.063V12.9085L168.341 9.11191H166.785V5.50511H175.536V8.73224H172.619L169.119 12.339L173.008 18.6035H176.12V22.0204H167.369V18.6035H169.119L166.785 14.4272L164.063 16.895V18.7933H166.397V22.0204L157.062 21.8306ZM53.217 21.8306V18.6035H55.9395V8.73224H52.6336V5.50511H59.4399V8.35258C60.6067 7.02376 62.5514 5.31528 65.2739 5.31528C67.0241 5.31528 69.1632 6.45427 69.1632 8.54241C69.1632 9.6814 68.1909 10.4407 67.2186 10.4407C66.2462 10.4407 65.8573 10.0611 65.6628 9.49157C65.2739 8.92207 64.885 8.73224 64.496 8.73224C62.1624 8.73224 59.8288 11.2001 59.2454 12.7187V18.6035H61.968V22.0204L53.217 21.8306Z" fill="#211E1E"/>
</svg>
